Coordinates
version=1
nRows=12
nColumns=33
inDegrees=yes

Units are S.I. units (second, meters, Newtons, ...)
Angles are in degrees.

endheader
time	ground_thorax_rot_x	ground_thorax_rot_y	ground_thorax_rot_z	ground_thorax_tx	ground_thorax_ty	ground_thorax_tz	clav_prot_r	clav_elev_r	scapula_abduction_r	scapula_elevation_r	scapula_upward_rot_r	scapula_winging_r	shoulder_elv_r	plane_of_elev_r	axial_rot_r	elbow_flexion_r	pro_sup_r	wrist_flex_r	wrist_dev_r	clav_prot_l	clav_elev_l	scapula_abduction_l	scapula_elevation_l	scapula_upward_rot_l	scapula_winging_l	shoulder_elv_l	plane_of_elev_l	axial_rot_l	elbow_flexion_l	pro_sup_l	wrist_flex_l	wrist_dev_l
      4.99000000	    -90.00000000	     90.00000000	    -90.00000000	   -248.01556078	    833.28809133	      9.75404219	     25.75618652	     40.36539477	     45.00000000	     45.00000000	     16.09558535	   3223.38162731	  -1699.73666854	     26.22300709	   -160.00729528	    739.46218950	     83.64627492	     16.34837649	      3.15093159	    -45.00000000	      1.38826059	     33.35769053	    -11.74418194	    -45.00000000	  -3853.52693641	   1197.74556091	     10.55735432	   -153.86819874	   1806.10092510	     21.57744418	     11.07442353	    -23.30087321
      5.00000000	    -90.00000000	     90.00000000	    -90.00000000	   -248.13025851	    832.67257000	      9.58743564	     25.60278616	     41.02619773	     45.00000000	     45.00000000	     16.20976979	   3223.33063214	  -1698.49233811	     26.71502292	   -144.23527525	    745.01641175	    152.13189140	     13.37683420	      4.79982446	    -45.00000000	      1.70237758	     33.37162847	    -11.87926042	    -45.00000000	  -3853.47097904	   1198.41861100	     11.54766625	   -161.46043069	   1807.00872457	     11.33936365	      9.91800543	    -21.38170363
      5.01000000	    -90.00000000	     90.00000000	    -90.00000000	   -247.98306975	    832.04344108	      9.39907048	     25.71753598	     41.36247077	     45.00000000	     45.00000000	     16.43775963	   3223.38523738	  -1698.58653492	     26.66150471	   -144.42427322	    745.02310726	    152.37400922	     12.76877183	      4.85283589	    -45.00000000	      2.23993618	     33.63163950	    -12.13623804	    -45.00000000	  -3853.87181974	   1198.37462765	     11.29483211	   -161.23213104	   1807.12976119	     12.35910811	      9.84328243	    -21.66506037
      5.02000000	    -90.00000000	     90.00000000	    -90.00000000	   -247.62753857	    831.42061878	      9.19926248	     25.71939649	     41.15757743	     45.00000000	     45.00000000	     16.30546272	   3223.38635281	  -1698.38028794	     26.70290351	   -144.22432598	    745.12438280	    152.64386576	     13.01502977	      4.81861535	    -45.00000000	      2.28679489	     33.58767939	    -12.22345938	    -45.00000000	  -3853.55232338	   1198.10795825	     11.44236291	   -160.85087445	   1807.19845176	     13.29623237	      9.41859903	    -21.77692525
      5.03000000	    -90.00000000	     90.00000000	    -90.00000000	   -247.12783244	    830.81986484	      8.99817140	     25.77097011	     41.26736731	     45.00000000	     45.00000000	     16.47087790	   3223.47454536	  -1698.53045654	     26.61500106	   -144.31039983	    745.16792312	    153.10020515	     12.77326307	      4.99656691	    -45.00000000	      2.48223316	     33.76127683	    -12.36690541	    -45.00000000	  -3853.58666214	   1197.96539998	     11.36116094	   -160.66567790	   1807.19251450	     14.34412615	      9.24624970	    -21.95338325
      5.04000000	    -90.00000000	     90.00000000	    -90.00000000	   -246.55107242	    830.25601258	      8.80225194	     25.80879071	     41.20106570	     45.00000000	     45.00000000	     16.27890602	   3223.47772159	  -1698.34269663	     26.65893611	   -144.19441596	    745.20714884	    153.59576759	     12.82481952	      4.97139884	    -45.00000000	      2.69383800	     33.96986759	    -12.58090567	    -45.00000000	  -3853.55506962	   1197.75925493	     11.42768044	   -160.37951695	   1807.16718310	     15.36634661	      8.85419767	    -22.07987889
      5.05000000	    -90.00000000	     90.00000000	    -90.00000000	   -245.96037338	    829.74236232	      8.61538242	     25.88759822	     41.19355485	     45.00000000	     45.00000000	     16.43115663	   3223.58785488	  -1698.54714667	     26.53859278	   -144.32794430	    745.22612208	    154.20515065	     12.68532881	      5.14158763	    -45.00000000	      2.87491835	     34.20916382	    -12.88199609	    -45.00000000	  -3853.77522016	   1197.52337593	     11.36247149	   -160.13757628	   1807.23912457	     16.41357141	      8.58882554	    -22.22619097
      5.06000000	    -90.00000000	     90.00000000	    -90.00000000	   -245.40644018	    829.28949507	      8.43920647	     25.92090444	     41.21714309	     45.00000000	     45.00000000	     16.13735989	   3223.58710749	  -1698.29145035	     26.61937059	   -144.25003074	    745.24720617	    154.78516382	     12.68568940	      5.08825968	    -45.00000000	      3.13826847	     34.36241980	    -13.06288282	    -45.00000000	  -3853.85337441	   1197.37823680	     11.32186727	   -159.84199607	   1807.36991823	     17.45212525	      8.24812870	    -22.37044584
      5.07000000	    -90.00000000	     90.00000000	    -90.00000000	   -244.92507147	    828.90658020	      8.27443022	     26.02102256	     41.12549066	     45.00000000	     45.00000000	     16.35206734	   3223.76448851	  -1698.57860362	     26.46424059	   -144.45181554	    745.27436687	    155.45707440	     12.55920542	      5.23531539	    -45.00000000	      3.35665960	     34.51429459	    -13.18308285	    -45.00000000	  -3853.98978044	   1197.29659815	     11.17382003	   -159.63194940	   1807.43051643	     18.54688259	      8.01690493	    -22.50346925
      5.08000000	    -90.00000000	     90.00000000	    -90.00000000	   -244.53259362	    828.59841513	      8.12068444	     26.04537708	     41.19092594	     45.00000000	     45.00000000	     16.01437136	   3223.75410752	  -1698.30756495	     26.56134064	   -144.43789515	    745.27776717	    156.05067624	     12.53084526	      5.16392113	    -45.00000000	      3.58134738	     34.59529539	    -13.37233895	    -45.00000000	  -3854.03563934	   1197.12644068	     11.17753028	   -159.41564848	   1807.53616501	     19.58694196	      7.74005047	    -22.62929998
      5.09000000	    -90.00000000	     90.00000000	    -90.00000000	   -244.23100089	    828.36680088	      7.97806529	     26.14196758	     41.06795123	     45.00000000	     45.00000000	     16.20988643	   3223.92442041	  -1698.60967111	     26.40970199	   -144.70483892	    745.29319102	    156.69471845	     12.40805391	      5.27446631	    -45.00000000	      3.72308428	     34.63613196	    -13.53214756	    -45.00000000	  -3854.10001308	   1196.99392670	     11.12673744	   -159.28384698	   1807.63310452	     20.58347844	      7.54185510	    -22.74243842
      5.10000000	    -90.00000000	     90.00000000	    -90.00000000	   -244.00752900	    828.20608015	      7.84627769	     26.16001026	     41.14295873	     45.00000000	     45.00000000	     15.89519342	   3223.91546899	  -1698.35680809	     26.49448511	   -144.78898240	    745.30559959	    157.25660915	     12.36174800	      5.19588611	    -45.00000000	      3.87363448	     34.70737763	    -13.69962643	    -45.00000000	  -3854.15350715	   1196.81484055	     11.16901844	   -159.18071077	   1807.72735013	     21.48098002	      7.33315457	    -22.83524151
